#N canvas 568 30 761 632 10;
#X obj 121 56 vsl 15 128 0 0.5 0 0 thresh thresh-set thresh 0 -9 0
10 -262144 -1 -1 12700 1;
#X obj 262 55 vsl 15 128 1 1000 0 0 attack attack-set attack 0 -9 0
10 -262144 -1 -1 114 1;
#X obj 314 54 vsl 15 128 -10 1000 0 0 release release-set release 0
-9 0 10 -262144 -1 -1 1383 1;
#X obj 174 55 vsl 15 128 -1 127 0 0 ratio ratio-set ratio 0 -9 0 10
-262144 -1 -1 496 1;
#X floatatom 174 191 5 0 0 0 - - -, f 5;
#X floatatom 314 190 5 0 0 0 - - -, f 5;
#X floatatom 262 191 5 0 0 0 - - -, f 5;
#X floatatom 121 192 5 0 0 0 - - -, f 5;
#N canvas 0 22 450 278 (subpatch) 0;
#X array precomp 4410 float 2;
#X coords 0 0.53 4409 -0.53 400 140 1;
#X restore 70 227 graph;
#N canvas 0 22 450 278 (subpatch) 0;
#X array postcomp 4410 float 2;
#X coords 0 0.53 4409 -0.53 400 140 1;
#X restore 70 387 graph;
#X obj 498 269 bng 15 250 50 0 start-drums empty PLAY 17 7 0 10 -4034
-1 -1;
#X obj 498 305 bng 15 250 50 0 stop-drums empty STOP 17 7 0 10 -258113
-1 -1;
#X obj 498 343 tgl 15 0 plotit-set plotit-on METERS 17 7 0 10 -262144
-1 -1 1 1;
#X floatatom 499 407 5 0 0 0 - - -, f 5;
#X obj 499 426 / 100;
#X obj 499 448 t f f;
#X obj 499 470 pack f f;
#X obj 558 447 * -1;
#X msg 499 493 \; precomp bounds 0 \$1 4409 \$2 \; postcomp bounds
0 \$1 4409 \$2 \;;
#X obj 435 55 vsl 15 128 0 110 0 0 makeup-gain makeup-gain-set makeup
0 -9 0 10 -262144 -1 -1 11545 1;
#X floatatom 435 191 5 0 0 0 - - -, f 5;
#N canvas 96 171 697 702 guts 1;
#N canvas 0 22 450 300 gui-guts 0;
#X obj 58 73 t b f;
#X obj 58 204 print;
#X obj 58 118 pack s f;
#X msg 58 95 thresh;
#X obj 58 140 list trim;
#X obj 58 51 r thresh;
#X obj 140 75 t b f;
#X obj 140 184 print;
#X obj 140 120 pack s f;
#X obj 140 142 list trim;
#X msg 140 97 attack;
#X obj 207 75 t b f;
#X obj 207 164 print;
#X obj 207 120 pack s f;
#X obj 207 142 list trim;
#X msg 207 97 release;
#X obj 140 53 r attack;
#X obj 207 53 r release;
#X obj 276 74 t b f;
#X obj 276 163 print;
#X obj 276 119 pack s f;
#X obj 276 141 list trim;
#X msg 276 96 ratio;
#X obj 276 52 r ratio;
#X obj 140 246 metro 100;
#X obj 140 268 s plotit;
#X obj 140 246 metro 100;
#X obj 140 268 s plotit;
#X obj 139 217 r plotit-set;
#X connect 0 0 3 0;
#X connect 0 1 2 1;
#X connect 2 0 4 0;
#X connect 3 0 2 0;
#X connect 5 0 0 0;
#X connect 6 0 10 0;
#X connect 6 1 8 1;
#X connect 8 0 9 0;
#X connect 10 0 8 0;
#X connect 11 0 15 0;
#X connect 11 1 13 1;
#X connect 13 0 14 0;
#X connect 15 0 13 0;
#X connect 16 0 6 0;
#X connect 17 0 11 0;
#X connect 18 0 22 0;
#X connect 18 1 20 1;
#X connect 20 0 21 0;
#X connect 22 0 20 0;
#X connect 23 0 18 0;
#X connect 24 0 25 0;
#X connect 26 0 27 0;
#X connect 28 0 24 0;
#X restore 490 95 pd gui-guts;
#N canvas 0 22 779 800 audio 1;
#X obj 302 154 readsf~;
#X obj 337 297 tabwrite~ precomp;
#X obj 359 277 r plotit;
#X msg 342 113 stop;
#X obj 302 245 +~;
#X obj 347 216 osc~ 50;
#X floatatom 403 131 5 0 0 0 - - -, f 5;
#X obj 367 246 *~;
#X obj 403 150 dbtorms;
#X obj 403 193 pack f 40;
#X obj 403 215 line~;
#X msg 391 103 0;
#X floatatom 413 172 5 0 0 0 - - -, f 5;
#X msg 417 103 90;
#X msg 303 80 open drums.wav \, start;
#X obj 303 35 r start-drums;
#X obj 409 49 r stop-drums;
#X text 460 157 test oscillator;
#X obj 310 178 env~;
#X floatatom 310 200 5 0 0 0 - - -, f 5;
#X obj 336 659 *~;
#X obj 351 593 dbtorms;
#X obj 351 615 pack f 40;
#X obj 351 637 line~;
#X obj 367 502 r plotit;
#X obj 354 524 tabwrite~ postcomp;
#X floatatom 611 587 5 0 0 0 - - -, f 5;
#X obj 563 609 *~;
#X obj 611 606 dbtorms;
#X obj 611 628 pack f 40;
#X obj 611 650 line~;
#X obj 556 780 dac~;
#X obj 539 321 tgl 15 0 empty empty empty 17 7 0 10 -262144 -1 -1 0
1;
#X obj 539 341 select 0 1;
#X obj 539 391 unpack f f;
#X obj 336 502 *~;
#X obj 351 429 dbtorms;
#X obj 351 451 pack f 40;
#X obj 351 473 line~;
#X msg 657 362 0 0;
#X msg 581 363 0 100;
#X msg 539 363 100 0;
#X msg 168 259 print;
#X msg 141 299 ratio \$1;
#X obj 421 407 r makeup-gain;
#X obj 110 211 r thresh;
#X msg 155 279 thresh \$1;
#X obj 72 253 r ratio;
#X obj 47 291 r attack;
#X obj 25 332 r release;
#X msg 127 319 attack \$1;
#X msg 113 339 release \$1;
#X floatatom 110 233 5 0 0 0 - - -, f 5;
#X floatatom 72 275 5 0 0 0 - - -, f 5;
#X floatatom 47 313 5 0 0 0 - - -, f 5;
#X floatatom 25 354 5 0 0 0 - - -, f 5;
#X obj 319 707 dac~;
#X floatatom 421 429 5 0 0 0 - - -, f 5;
#X obj 366 553 r output-volume;
#X floatatom 366 575 5 0 0 0 - - -, f 5;
#X obj 337 378 benCompressor~;
#X connect 0 0 4 0;
#X connect 0 0 18 0;
#X connect 0 1 14 0;
#X connect 2 0 1 0;
#X connect 3 0 0 0;
#X connect 4 0 1 0;
#X connect 4 0 60 0;
#X connect 5 0 7 0;
#X connect 6 0 8 0;
#X connect 7 0 1 0;
#X connect 7 0 60 0;
#X connect 8 0 9 0;
#X connect 8 0 12 0;
#X connect 9 0 10 0;
#X connect 10 0 7 1;
#X connect 11 0 6 0;
#X connect 13 0 6 0;
#X connect 14 0 0 0;
#X connect 15 0 14 0;
#X connect 16 0 3 0;
#X connect 18 0 19 0;
#X connect 20 0 56 0;
#X connect 20 0 56 1;
#X connect 21 0 22 0;
#X connect 22 0 23 0;
#X connect 23 0 20 1;
#X connect 24 0 25 0;
#X connect 26 0 28 0;
#X connect 28 0 29 0;
#X connect 29 0 30 0;
#X connect 30 0 27 1;
#X connect 32 0 33 0;
#X connect 33 0 41 0;
#X connect 33 1 40 0;
#X connect 34 0 26 0;
#X connect 35 0 20 0;
#X connect 35 0 25 0;
#X connect 36 0 37 0;
#X connect 37 0 38 0;
#X connect 38 0 35 1;
#X connect 39 0 34 0;
#X connect 40 0 34 0;
#X connect 41 0 34 0;
#X connect 42 0 60 0;
#X connect 43 0 60 0;
#X connect 44 0 36 0;
#X connect 44 0 57 0;
#X connect 45 0 46 0;
#X connect 45 0 52 0;
#X connect 46 0 60 0;
#X connect 47 0 43 0;
#X connect 47 0 53 0;
#X connect 48 0 50 0;
#X connect 48 0 54 0;
#X connect 49 0 51 0;
#X connect 49 0 55 0;
#X connect 50 0 60 0;
#X connect 51 0 60 0;
#X connect 58 0 21 0;
#X connect 58 0 59 0;
#X connect 60 0 35 0;
#X restore 108 112 pd audio;
#X obj 32 294 loadbang;
#X text 37 170 1) Rough GUI Implementation 2) 2nd outlet w/ ramp value
3) Drum track/ Vocal track;
#X floatatom 37 450 5 0 0 0 - - -, f 5;
#X obj 37 469 / 100;
#X obj 37 491 t f f;
#X obj 37 513 pack f f;
#X obj 96 490 * -1;
#X msg 37 536 \; precomp bounds 0 \$1 4409 \$2 \; postcomp bounds 0
\$1 4409 \$2 \;;
#X msg 32 316 \; pd dsp 0 \; thresh-set 1 \; attack-set 10 \; release-set
100 \; ratio-set 4 \; makeup-gain-set 100 \; output-vol-set 100 \;
plotit-on 1 \;;
#X connect 2 0 10 0;
#X connect 4 0 5 0;
#X connect 5 0 6 0;
#X connect 6 0 7 0;
#X connect 6 1 8 0;
#X connect 7 0 9 0;
#X connect 8 0 7 1;
#X restore 204 557 pd guts;
#X obj 525 61 vsl 15 128 0 100 0 0 output-volume output-vol-set output_volume
0 -9 0 10 -262144 -1 -1 12700 1;
#X connect 0 0 7 0;
#X connect 1 0 6 0;
#X connect 2 0 5 0;
#X connect 3 0 4 0;
#X connect 13 0 14 0;
#X connect 14 0 15 0;
#X connect 15 0 16 0;
#X connect 15 1 17 0;
#X connect 16 0 18 0;
#X connect 17 0 16 1;
#X connect 19 0 20 0;
